<?xml version="1.0" ?>
<!-- Uploaded to: SVG Repo, www.svgrepo.com, Generator: SVG Repo Mixer Tools -->
<svg width="800px" height="800px" viewBox="0 0 108 108" id="Layeri" xmlns="http://www.w3.org/2000/svg" xmlns:xlink="http://www.w3.org/1999/xlink">
<defs>
<style>.cls-1{fill:none;}.cls-2{clip-path:url(#clip-path);}</style>
<clipPath id="clip-path">
<rect class="cls-1" height="104" width="104" x="2" y="2"/>
</clipPath>
</defs>
<title/>
<g class="cls-2">
<g id="Line">
<path d="M89,73.38a16.31,16.31,0,0,0,1-32.56V32H40v4H59V46l-7,7V71H70V53l-7-7V36H86V66.4A22.9,22.9,0,0,1,66.58,88.78a23.48,23.48,0,0,1-3.56.27H44a23.44,23.44,0,0,1-3.55-.27A22.62,22.62,0,0,1,21,66.4V36h7V32H17V66.39A26.44,26.44,0,0,0,29.71,89.05H18.79A7.8,7.8,0,0,0,11,96.85v.44a7.79,7.79,0,0,0,7.79,7.78H88.21A7.79,7.79,0,0,0,96,97.3v-.44a7.8,7.8,0,0,0-7.79-7.8h-11A27.1,27.1,0,0,0,89,73.38Zm1-6.94V44.82a12.36,12.36,0,0,1-.17,24.58A26.36,26.36,0,0,0,90,66.44ZM66,54.63V67H56V54.63l5-5ZM88.21,93.06A3.8,3.8,0,0,1,92,96.85v.42a3.8,3.8,0,0,1-3.79,3.8H18.79A3.8,3.8,0,0,1,15,97.28v-.42a3.8,3.8,0,0,1,3.79-3.8Z"/>
<path d="M32,25.77a2,2,0,0,1-2-2c0-1.8,1.2-3.13,2.17-4.2a11.15,11.15,0,0,0,.78-.92,8.89,8.89,0,0,0-1-1.27c-.9-1-1.92-2.11-1.92-3.63S31,11,31.94,10A6,6,0,0,0,33,8.68a2,2,0,0,1,2-2,2,2,0,0,1,2,2c0,1.72-1.16,3-2.09,4a10.89,10.89,0,0,0-.83,1,11.14,11.14,0,0,0,.8.95c.94,1,2.12,2.33,2.12,4.08a5.45,5.45,0,0,1-1.86,3.51A5.75,5.75,0,0,0,34,23.78,2,2,0,0,1,32,25.77Z"/>
<path d="M72.83,25.77a2,2,0,0,1-2-2c0-1.8,1.2-3.13,2.17-4.2a11.48,11.48,0,0,0,.78-.92,8.9,8.9,0,0,0-1-1.27c-.9-1-1.92-2.11-1.92-3.63s1-2.69,1.95-3.69a6,6,0,0,0,1.05-1.37,2,2,0,0,1,2-2,2,2,0,0,1,2,2c0,1.72-1.16,3-2.09,4a10.89,10.89,0,0,0-.83,1,11.14,11.14,0,0,0,.8.95c.94,1,2.12,2.33,2.12,4.08A5.44,5.44,0,0,1,76,22.26a5.77,5.77,0,0,0-1.13,1.52A2,2,0,0,1,72.83,25.77Z"/>
<path d="M51.85,27.77a2,2,0,0,1-2-2c0-1.92,1.37-3.44,2.57-4.79A7.52,7.52,0,0,0,54,18.87a7.58,7.58,0,0,0-1.55-2.11c-1.2-1.34-2.57-2.87-2.57-4.78s1.37-3.44,2.57-4.79A7.49,7.49,0,0,0,54,5.08a2,2,0,1,1,4,0C58,7,56.6,8.52,55.4,9.87A7.49,7.49,0,0,0,53.85,12a7.6,7.6,0,0,0,1.55,2.11C56.6,15.43,58,17,58,18.87s-1.37,3.44-2.57,4.78a7.51,7.51,0,0,0-1.55,2.11A2,2,0,0,1,51.85,27.77Z"/>
<rect height="4.01" rx="2" ry="2" width="4" x="32" y="31.97"/>
</g>
</g>
</svg>